<?xml version="1.0" standalone="no"?>
<!DOCTYPE svg PUBLIC "-//W3C//DTD SVG 20010904//EN"
 "http://www.w3.org/TR/2001/REC-SVG-20010904/DTD/svg10.dtd">
<svg version="1.0" xmlns="http://www.w3.org/2000/svg"
 width="400.000000pt" height="400.000000pt" viewBox="0 0 400.000000 400.000000"
 preserveAspectRatio="xMidYMid meet">
<metadata>
Created by potrace 1.14, written by Peter Selinger 2001-2017
</metadata>
<g transform="translate(0.000000,400.000000) scale(0.100000,-0.100000)"
fill="#000000" stroke="none">
<path d="M2018 2705 c-2 -2 -16 -5 -33 -8 -67 -11 -195 -70 -238 -111 -15 -14
-32 -26 -38 -26 -5 0 -9 -3 -9 -7 0 -5 -18 -27 -39 -50 -158 -170 -334 -446
-381 -598 -7 -22 -15 -44 -19 -50 -3 -5 -6 -14 -7 -20 -1 -5 -9 -35 -17 -65
-25 -87 -29 -125 -32 -296 -4 -220 12 -311 79 -458 14 -31 26 -62 26 -69 0 -7
4 -17 9 -23 4 -5 16 -34 25 -64 46 -152 80 -187 234 -246 34 -13 62 -22 62
-19 0 3 18 -4 40 -15 22 -11 40 -17 40 -13 0 5 4 4 8 -2 8 -12 69 -55 77 -55
3 0 13 -8 24 -18 132 -122 270 -128 449 -18 40 25 92 51 115 57 23 6 48 16 55
21 6 6 12 8 12 4 0 -9 75 30 130 67 43 29 173 155 214 206 32 41 95 165 115
227 31 96 41 158 48 297 12 250 5 336 -34 437 -12 29 -7 50 11 50 32 0 75 78
71 132 -3 48 -32 83 -122 145 -60 42 -80 62 -98 100 -24 54 -85 121 -128 143
-16 8 -50 41 -77 75 -54 68 -140 152 -185 180 -16 11 -32 22 -35 25 -5 7 -76
36 -125 52 -28 9 -220 20 -227 13z"/>
</g>
</svg>
